<svg id="Layer_1" data-name="Layer 1" xmlns="http://www.w3.org/2000/svg" viewBox="0 0 512 512"><defs><style>.cls-1{fill:#f4895e;}.cls-2,.cls-3{fill:#fff;}.cls-3{opacity:0.15;}</style></defs><title>prediction</title><path class="cls-1" d="M462,256A205.82,205.82,0,0,1,319.63,452h0A205.85,205.85,0,0,1,256,462C146.65,462,57.21,376.8,50.42,269.17Q50,262.63,50,256c0-96.43,66.26-177.39,155.74-199.82A205.92,205.92,0,0,1,462,256Z"/><path class="cls-2" d="M251.5,234.36h0a65.5,65.5,0,0,1,65.5,65.5v41.39a0,0,0,0,1,0,0H186a0,0,0,0,1,0,0V299.86A65.5,65.5,0,0,1,251.5,234.36Z"/><circle class="cls-2" cx="251.9" cy="182.92" r="36.17"/><path class="cls-2" d="M390.41,237.38A135.44,135.44,0,0,0,272.08,121.27L276,88.5A168.42,168.42,0,0,1,423.1,232.9Z"/><path class="cls-2" d="M231.85,423A168.78,168.78,0,0,1,88.63,277l32.74-4.07A135.72,135.72,0,0,0,236.54,390.29Z"/><path class="cls-2" d="M276,423.5l-3.87-32.77a135.15,135.15,0,0,0,118.55-117.8L423.37,277A168.74,168.74,0,0,1,276,423.5Z"/><path class="cls-2" d="M121.59,237.38,88.9,232.9c10.15-74.08,68.94-133.24,143-143.85l4.69,32.66A136,136,0,0,0,121.59,237.38Z"/><path class="cls-3" d="M266,167a131.51,131.51,0,0,1-10.61,51.92,130.13,130.13,0,0,1-7.93,15.57,132,132,0,0,1-197,34.68Q50,262.63,50,256c0-96.43,66.26-177.39,155.74-199.82a132,132,0,0,1,59.06,92.94A133.57,133.57,0,0,1,266,167Z"/><path class="cls-3" d="M455,309.49A206.42,206.42,0,0,1,319.63,452h0a99.06,99.06,0,0,1-10.36-110.74A96,96,0,0,1,317,329.34,98.8,98.8,0,0,1,396,290c2.79,0,5.54.11,8.27.35A98.22,98.22,0,0,1,455,309.49Z"/><path class="cls-3" d="M447.52,180H317V59.18A206.52,206.52,0,0,1,447.52,180Z"/></svg>