<svg id="Layer_1" data-name="Layer 1" xmlns="http://www.w3.org/2000/svg" viewBox="0 0 512 512"><defs><style>.cls-1{fill:#4ec1b2;}.cls-2,.cls-3{fill:#fff;}.cls-3{opacity:0.15;}</style></defs><title>automation</title><path class="cls-1" d="M462,256c0,113.77-92.23,206-206,206q-6.56,0-13-.41C135.29,454.89,50,365.4,50,256a206,206,0,1,1,412,0Z"/><path class="cls-2" d="M292,282.84,277.26,277,292,271.16l6.79-2.69,19.2-7.6a93.66,93.66,0,0,0-4.51-16.9L293,247l-7.21,1.06-15.7,2.32L280,237.94l4.54-5.73L297.33,216A93.88,93.88,0,0,0,285,203.67l-16.17,12.82L263.06,221l-12.43,9.84,2.32-15.7L254,208l.88-6L257,187.51a93.66,93.66,0,0,0-16.9-4.51l-7.6,19.2L229.84,209,224,223.74,218.16,209l-2.69-6.79-7.6-19.2a93.66,93.66,0,0,0-16.9,4.51L194,208l1.06,7.21,2.32,15.7L185,221.08l-.06-.05-5.73-4.54L163,203.67A93.88,93.88,0,0,0,150.67,216l12.82,16.17,4.54,5.73,9.84,12.43-15.7-2.32L155,247l-20.45-3A93.58,93.58,0,0,0,131,256c-.37,1.61-.68,3.23-1,4.87l19.2,7.6,6.79,2.69L170.74,277,156,282.84l-6.79,2.69-19.2,7.6a93.66,93.66,0,0,0,4.51,16.9L155,307l7.21-1.06,15.7-2.32L168,316.06l-4.54,5.73L150.67,338A93.88,93.88,0,0,0,163,350.33l16.17-12.82,5.73-4.54,12.43-9.84-2.32,15.7L194,346l-3,20.45a93.66,93.66,0,0,0,16.9,4.51l7.6-19.2,2.69-6.79L224,330.26,229.84,345l2.69,6.79,7.6,19.2c1-.16,1.92-.34,2.87-.53a94.34,94.34,0,0,0,14-4L254,346,253,338.83l-2.32-15.7L263.06,333l5.73,4.54L285,350.33A93.88,93.88,0,0,0,297.33,338l-12.82-16.17L280,316.06l-9.84-12.43,15.7,2.32L293,307l20.45,3a93.66,93.66,0,0,0,4.51-16.9l-19.2-7.6ZM226.24,303c-.74.07-1.49.1-2.24.1s-1.5,0-2.24-.1a25.72,25.72,0,0,1-8.83-2.36,24.81,24.81,0,0,1-3.87-2.24,25.75,25.75,0,0,1-6.46-6.46,24.81,24.81,0,0,1-2.24-3.87,25.72,25.72,0,0,1-2.36-8.83c-.07-.74-.1-1.49-.1-2.24s0-1.5.1-2.24a25.72,25.72,0,0,1,2.36-8.83,24.81,24.81,0,0,1,2.24-3.87,25.75,25.75,0,0,1,6.46-6.46,24.81,24.81,0,0,1,3.87-2.24,25.72,25.72,0,0,1,8.83-2.36c.74-.07,1.49-.1,2.24-.1s1.5,0,2.24.1a25.72,25.72,0,0,1,8.83,2.36,24.81,24.81,0,0,1,3.87,2.24,26.24,26.24,0,0,1,6.46,6.46,24.81,24.81,0,0,1,2.24,3.87,25.72,25.72,0,0,1,2.36,8.83c.07.74.1,1.49.1,2.24s0,1.5-.1,2.24a25.72,25.72,0,0,1-2.36,8.83,24.81,24.81,0,0,1-2.24,3.87,26.24,26.24,0,0,1-6.46,6.46,24.81,24.81,0,0,1-3.87,2.24A25.72,25.72,0,0,1,226.24,303Z"/><path class="cls-2" d="M299,270.56c-.06-.71-.13-1.4-.21-2.09A74,74,0,0,0,293,247c-.27-.65-.55-1.29-.85-1.92a74.06,74.06,0,0,0-6.45-11.16l-1.23-1.7a75.57,75.57,0,0,0-15.72-15.72l-1.71-1.23a73.47,73.47,0,0,0-11.15-6.45c-.63-.3-1.27-.58-1.92-.85a74.9,74.9,0,0,0-21.48-5.76c-.69-.08-1.38-.15-2.09-.21q-3.18-.28-6.44-.28t-6.44.28c-.71.06-1.4.13-2.09.21A74,74,0,0,0,194,208c-.65.27-1.29.55-1.92.85A73.71,73.71,0,0,0,185,212.6c-1.39.84-2.75,1.72-4.08,2.66l-1.71,1.23a75.57,75.57,0,0,0-15.72,15.72l-1.23,1.7a74.06,74.06,0,0,0-6.45,11.16c-.3.63-.58,1.27-.85,1.92a73.23,73.23,0,0,0-3.27,9,74.22,74.22,0,0,0-2.49,12.47c-.08.69-.15,1.38-.21,2.09q-.28,3.18-.28,6.44t.28,6.44c.06.71.13,1.4.21,2.09A74,74,0,0,0,155,307c.27.65.55,1.29.85,1.92a73.47,73.47,0,0,0,6.45,11.15q.62.87,1.23,1.71a75.57,75.57,0,0,0,15.72,15.72l1.71,1.23a73.47,73.47,0,0,0,11.15,6.45c.63.3,1.27.58,1.92.85a74,74,0,0,0,21.48,5.76c.69.08,1.38.15,2.09.21q3.18.28,6.44.28t6.44-.28c.71-.06,1.4-.13,2.09-.21A74.9,74.9,0,0,0,254,346c.65-.27,1.29-.55,1.92-.85a73.47,73.47,0,0,0,11.15-6.45l1.71-1.23a75.57,75.57,0,0,0,15.72-15.72q.62-.84,1.23-1.71a73.47,73.47,0,0,0,6.45-11.15c.3-.63.58-1.27.85-1.92a74,74,0,0,0,5.76-21.48c.08-.69.15-1.38.21-2.09q.28-3.18.28-6.44T299,270.56Zm-49,8.68a25.72,25.72,0,0,1-2.36,8.83,24.81,24.81,0,0,1-2.24,3.87,26.24,26.24,0,0,1-6.46,6.46,24.81,24.81,0,0,1-3.87,2.24,25.72,25.72,0,0,1-8.83,2.36c-.74.07-1.49.1-2.24.1s-1.5,0-2.24-.1a25.72,25.72,0,0,1-8.83-2.36,24.81,24.81,0,0,1-3.87-2.24,25.75,25.75,0,0,1-6.46-6.46,24.81,24.81,0,0,1-2.24-3.87,25.72,25.72,0,0,1-2.36-8.83c-.07-.74-.1-1.49-.1-2.24s0-1.5.1-2.24a25.72,25.72,0,0,1,2.36-8.83,24.81,24.81,0,0,1,2.24-3.87,25.75,25.75,0,0,1,6.46-6.46,24.81,24.81,0,0,1,3.87-2.24,25.72,25.72,0,0,1,8.83-2.36c.74-.07,1.49-.1,2.24-.1s1.5,0,2.24.1a25.72,25.72,0,0,1,8.83,2.36,24.81,24.81,0,0,1,3.87,2.24,26.24,26.24,0,0,1,6.46,6.46,24.81,24.81,0,0,1,2.24,3.87,25.72,25.72,0,0,1,2.36,8.83c.07.74.1,1.49.1,2.24S250.07,278.5,250,279.24Z"/><path class="cls-2" d="M385.9,183.17l-8-3.17,8-3.17,3.68-1.46L400,171.25a50.13,50.13,0,0,0-2.45-9.17l-11.09,1.64-3.92.57L374,165.55l5.34-6.74,2.46-3.11,7-8.78a51.88,51.88,0,0,0-6.71-6.71l-8.78,7-3.11,2.46L363.45,155l1.26-8.51.57-3.92,1.64-11.09a50.13,50.13,0,0,0-9.17-2.45l-4.12,10.42-1.46,3.68-3.17,8-3.17-8-1.46-3.68L340.25,129a50.13,50.13,0,0,0-9.17,2.45l1.64,11.09.57,3.92,1.26,8.51-6.74-5.34-3.11-2.46-8.78-7a51.88,51.88,0,0,0-6.71,6.71l7,8.78,2.46,3.11,5.34,6.74-8.51-1.26-3.92-.57-11.09-1.64a50.13,50.13,0,0,0-2.45,9.17l10.42,4.12,3.68,1.46,8,3.17-8,3.17-3.68,1.46L298,188.75a50.13,50.13,0,0,0,2.45,9.17l11.09-1.64,3.92-.57,8.51-1.26-5.34,6.74L318,202l-1.82,2.3-7,8.78a51.88,51.88,0,0,0,6.71,6.71l8.78-7,3.11-2.46,6.74-5.34-1.26,8.51-.57,3.92-1.64,11.09a50.13,50.13,0,0,0,9.17,2.45l4.12-10.42,1.46-3.68,3.17-8,3.17,8,1.46,3.68L357.75,231a50.13,50.13,0,0,0,9.17-2.45l-1.64-11.09-.57-3.92L363.45,205l6.74,5.34,3.11,2.46,8.78,7a51.88,51.88,0,0,0,6.71-6.71l-7-8.78L380,202l-.64-.81L374,194.45l8.51,1.26,3.92.57,11.09,1.64a50.13,50.13,0,0,0,2.45-9.17l-10.42-4.12Zm-38.11-17.28c.4,0,.8,0,1.21,0s.81,0,1.21,0a13.85,13.85,0,0,1,6.89,2.5,13.94,13.94,0,0,1,3.51,3.51,13.85,13.85,0,0,1,2.5,6.89c0,.4.05.8.05,1.21s0,.81-.05,1.21a13.85,13.85,0,0,1-2.5,6.89,13.94,13.94,0,0,1-3.51,3.51,13.85,13.85,0,0,1-6.89,2.5c-.4,0-.8,0-1.21,0s-.81,0-1.21,0a13.85,13.85,0,0,1-6.89-2.5,13.94,13.94,0,0,1-3.51-3.51,13.85,13.85,0,0,1-2.5-6.89c0-.4-.05-.8-.05-1.21s0-.81.05-1.21a13.85,13.85,0,0,1,2.5-6.89,13.94,13.94,0,0,1,3.51-3.51,13.85,13.85,0,0,1,6.89-2.5Z"/><path class="cls-2" d="M389.7,176.5l-.12-1.13a40.19,40.19,0,0,0-3.12-11.65c-.15-.35-.3-.7-.46-1a40.08,40.08,0,0,0-3.5-6.06l-.67-.92a40.58,40.58,0,0,0-8.53-8.53l-.92-.67a40.47,40.47,0,0,0-6.05-3.5l-1.05-.46a40.19,40.19,0,0,0-11.65-3.12l-1.13-.12c-1.16-.1-2.32-.15-3.5-.15s-2.34,0-3.5.15l-1.13.12a40.19,40.19,0,0,0-11.65,3.12l-1,.46a40.08,40.08,0,0,0-6.06,3.5l-.92.67a40.58,40.58,0,0,0-8.53,8.53l-.67.92a40.08,40.08,0,0,0-3.5,6.06c-.16.34-.31.69-.46,1a40.19,40.19,0,0,0-3.12,11.65l-.12,1.13c-.1,1.16-.15,2.32-.15,3.5s.05,2.34.15,3.5l.12,1.13a40.19,40.19,0,0,0,3.12,11.65c.15.35.3.7.46,1a38,38,0,0,0,2.58,4.68c.29.46.6.93.92,1.38l.67.92a40.58,40.58,0,0,0,8.53,8.53l.92.67a40.08,40.08,0,0,0,6.06,3.5l1,.46a40.19,40.19,0,0,0,11.65,3.12l1.13.12c1.16.1,2.32.15,3.5.15s2.34,0,3.5-.15l1.13-.12a40.19,40.19,0,0,0,11.65-3.12l1.05-.46a40.47,40.47,0,0,0,6.05-3.5l.92-.67a40.58,40.58,0,0,0,8.53-8.53l.67-.92c.32-.45.63-.92.92-1.38a38,38,0,0,0,2.58-4.68c.16-.34.31-.69.46-1a40.19,40.19,0,0,0,3.12-11.65l.12-1.13c.1-1.16.15-2.32.15-3.5S389.8,177.66,389.7,176.5Zm-54.81,2.29a13.85,13.85,0,0,1,2.5-6.89,13.94,13.94,0,0,1,3.51-3.51,13.85,13.85,0,0,1,6.89-2.5c.4,0,.8,0,1.21,0s.81,0,1.21,0a13.85,13.85,0,0,1,6.89,2.5,13.94,13.94,0,0,1,3.51,3.51,13.85,13.85,0,0,1,2.5,6.89c0,.4.05.8.05,1.21s0,.81-.05,1.21a13.85,13.85,0,0,1-2.5,6.89,13.94,13.94,0,0,1-3.51,3.51,13.85,13.85,0,0,1-6.89,2.5c-.4,0-.8,0-1.21,0s-.81,0-1.21,0a13.85,13.85,0,0,1-6.89-2.5,13.94,13.94,0,0,1-3.51-3.51,13.85,13.85,0,0,1-2.5-6.89c0-.4-.05-.8-.05-1.21S334.86,179.19,334.89,178.79Z"/><path class="cls-3" d="M185,62.56V256H50A206.09,206.09,0,0,1,185,62.56Z"/><path class="cls-3" d="M462,256c0,113.77-92.23,206-206,206q-6.56,0-13-.41V202H454.84A205.91,205.91,0,0,1,462,256Z"/><path class="cls-3" d="M413.31,123H224V52.47A206.36,206.36,0,0,1,413.31,123Z"/></svg>