<svg id="Layer_1" data-name="Layer 1" xmlns="http://www.w3.org/2000/svg" viewBox="0 0 512 512"><defs><style>.cls-1{fill:#2f60ce;}.cls-2,.cls-3{fill:#fff;}.cls-3{opacity:0.15;}</style></defs><title>visualization</title><path class="cls-1" d="M462,256c0,104.15-77.3,190.26-177.66,204.06A207.63,207.63,0,0,1,208,456.37C117.38,434.75,50,353.24,50,256a206,206,0,0,1,411.24-17.73Q462,247,462,256Z"/><path class="cls-2" d="M389,255.5v.5A133,133,0,0,1,256,389c-1.69,0-3.38,0-5.06-.1A133,133,0,0,1,123,256c0-.36,0-.72,0-1.07A132.89,132.89,0,0,1,255.5,123V255.5Z"/><path class="cls-2" d="M400,224.07H285.5V110.43h.43A114.07,114.07,0,0,1,400,224.07Z"/><path class="cls-3" d="M208,256V456.37C117.38,434.75,50,353.24,50,256Z"/><path class="cls-3" d="M400.22,108.91l-33.9,34.67-78.69,80.49L256.9,255.5l-48.9,50L187,327V61.85a206.23,206.23,0,0,1,213.22,47.06Z"/><path class="cls-3" d="M462,256c0,104.15-77.3,190.26-177.66,204.06A158.3,158.3,0,0,1,270,394c0-1.92,0-3.84.11-5.75a159.14,159.14,0,0,1,191.13-150Q462,247,462,256Z"/></svg>