<svg id="Layer_1" data-name="Layer 1" xmlns="http://www.w3.org/2000/svg" viewBox="0 0 1080 1080"><defs><style>.cls-1{fill:#fff;}.cls-2{fill:#d7e9ff;}.cls-3{fill:#2f60ce;}.cls-4{fill:#9cd7ff;}</style></defs><title>demand ai</title><path class="cls-1" d="M1080,540a540,540,0,0,1-539,540h-1c-168.45,0-318.88-77.13-417.9-198A537.65,537.65,0,0,1,0,543c0-1,0-2,0-3A538.19,538.19,0,0,1,42.44,329.81C120.23,145.89,297,14,506,1.06Q522.86,0,540,0a544.07,544.07,0,0,1,75,5.17A540.35,540.35,0,0,1,1074.11,460,543.88,543.88,0,0,1,1080,540Z"/><rect class="cls-2" x="170.73" y="388.64" width="737.44" height="441.36"/><rect class="cls-3" x="171.83" y="321" width="737.44" height="67.64"/><circle class="cls-2" cx="213.79" cy="353.34" r="13.12"/><circle class="cls-2" cx="256.71" cy="353.34" r="13.12"/><circle class="cls-2" cx="299.63" cy="353.34" r="13.12"/><rect class="cls-4" x="219.52" y="522.83" width="206.26" height="256.16"/><rect class="cls-4" x="473.46" y="746.83" width="380.36" height="34.38"/><path class="cls-4" d="M663.09,626a93.1,93.1,0,1,1-3.89-26.69A93.15,93.15,0,0,1,663.09,626Z"/><path class="cls-3" d="M659.2,599.27,569.94,626,588.7,534.7A93.23,93.23,0,0,1,659.2,599.27Z"/><rect class="cls-4" x="219.52" y="409.71" width="198.44" height="79.84"/><rect class="cls-4" x="448.54" y="409.71" width="198.44" height="79.84"/><rect class="cls-4" x="677.57" y="409.71" width="198.44" height="79.84"/><rect class="cls-3" x="273.86" y="436.7" width="84.28" height="23.29"/><rect class="cls-3" x="505.62" y="436.7" width="84.28" height="23.29"/><rect class="cls-3" x="735.17" y="436.7" width="84.28" height="23.29"/><rect class="cls-4" x="715.21" y="542.79" width="128.64" height="22.64"/><rect class="cls-4" x="715.21" y="590.12" width="96.73" height="22.64"/><rect class="cls-4" x="715.21" y="637.46" width="128.64" height="22.64"/><rect class="cls-4" x="715.21" y="684.8" width="98.79" height="22.64"/></svg>