<svg id="Layer_1" data-name="Layer 1" xmlns="http://www.w3.org/2000/svg" viewBox="0 0 1080 1080"><defs><style>.cls-1{fill:#fff;}.cls-2{fill:#57c6f2;}.cls-3{fill:#3594da;}.cls-4{fill:#45a8e5;}.cls-5{fill:#3493ce;}</style></defs><title>truescore</title><path class="cls-1" d="M1080,540a540,540,0,0,1-539,540h-1c-168.45,0-318.88-77.13-417.9-198A537.65,537.65,0,0,1,0,543c0-1,0-2,0-3A538.19,538.19,0,0,1,42.44,329.81C120.23,145.89,297,14,506,1.06Q522.86,0,540,0a544.07,544.07,0,0,1,75,5.17A540.35,540.35,0,0,1,1074.11,460,543.88,543.88,0,0,1,1080,540Z"/><path class="cls-2" d="M452.05,396.73a288.51,288.51,0,0,0-76.52,37.84A62.94,62.94,0,0,1,295,427.3l-74-74A451.43,451.43,0,0,1,420.4,237.06v1.87Z"/><path class="cls-3" d="M859,352.12l-74.27,74.27a62.94,62.94,0,0,1-80.16,7.39,288.57,288.57,0,0,0-93.52-42.17l40.38-152.68v-4.25A451.35,451.35,0,0,1,859,352.12Z"/><path class="cls-4" d="M651.52,234.64v4.25L611.13,391.57a291.65,291.65,0,0,0-159.06,5.12L420.4,238.93v-1.87A455,455,0,0,1,651.52,234.64Z"/><path class="cls-5" d="M609.6,778.51c-.25,44.43-31.48,80.59-69.61,80.59S470.67,823,470.4,778.51a16.85,16.85,0,0,1,.15-2.74L508,420.86l14.88-141.42c1.06-10.2,8.24-17.58,17-17.58s16,7.38,17,17.58l14.87,141.27,37.5,355.08A7.74,7.74,0,0,1,609.6,778.51Z"/></svg>