<svg id="Layer_1" data-name="Layer 1" xmlns="http://www.w3.org/2000/svg" viewBox="0 0 1080 1080"><defs><style>.cls-1{fill:#fff;}.cls-2{fill:#4ec1b2;}</style></defs><title>DS as a service copy</title><path class="cls-1" d="M1080,540a537.56,537.56,0,0,1-99,311.76l-1.26,1.77c-97.12,136-255.74,225-435.23,226.45l-4.47,0C241.77,1080,0,838.23,0,540q0-11.38.47-22.67A537.42,537.42,0,0,1,28.71,365.84q6.23-18.33,13.73-36A539.79,539.79,0,0,1,908.2,145C1013.9,243.57,1080,384.07,1080,540Z"/><path class="cls-2" d="M728,660.57a124.51,124.51,0,0,0-14.45,85.67l34.59,180.65H401.66l-19.25-154-84.15-27a68,68,0,0,1-47.06-69.29l6.09-91.34L227.92,569.4a32.42,32.42,0,0,1-10.57-48l49.57-66.1,4.44-56.3A210.5,210.5,0,0,1,398,222.23a302.5,302.5,0,0,1,50.95-16.78q10.47-2.46,21-4.13,14.44-2.32,28.93-3.2,9.32-.59,18.6-.58c.8,0,1.6,0,2.4,0A299.59,299.59,0,0,1,550,199.3q10.56,1.14,21,3a302.11,302.11,0,0,1,197.1,128.23,231.42,231.42,0,0,1,8.77,245.35Z"/><path class="cls-1" d="M469.9,201.32v78.6L415,380.54l-4.15,7.6-18.43-10.06,4.46-8.18,52-95.33V205.45Q459.37,203,469.9,201.32Z"/><circle class="cls-1" cx="387.22" cy="407.17" r="38.5"/><circle class="cls-1" cx="507.52" cy="484.17" r="38.5"/><circle class="cls-1" cx="632.64" cy="392.74" r="38.5"/><path class="cls-1" d="M519.83,197.56V484.17h-21v-286q9.32-.59,18.6-.58C518.23,197.54,519,197.54,519.83,197.56Z"/><path class="cls-1" d="M643.14,271.56V392.74h-21V292.56H550V199.3q10.56,1.14,21,3v69.24Z"/></svg>