<svg xmlns="http://www.w3.org/2000/svg" viewBox="0 0 512 512"><defs><style>.cls-1{fill:#4ec1b2;}.cls-2{fill:#fff;}</style></defs><title>credit scoring</title><g id="Layer_2" data-name="Layer 2"><path class="cls-1" d="M382.24,184.54H153.72a7.5,7.5,0,0,1-7.5-7.5V72a7.5,7.5,0,0,1,7.5-7.5H382.24a7.5,7.5,0,0,1,7.5,7.5V177A7.5,7.5,0,0,1,382.24,184.54Zm-221-15H374.74v-90H161.22Z"/><rect class="cls-2" x="129.76" y="95.96" width="228.51" height="105.04"/><path class="cls-1" d="M358.28,208.5H129.76a7.5,7.5,0,0,1-7.5-7.5V96a7.5,7.5,0,0,1,7.5-7.5H358.28a7.5,7.5,0,0,1,7.5,7.5V201A7.5,7.5,0,0,1,358.28,208.5Zm-221-15H350.78v-90H137.26Z"/><path class="cls-1" d="M129.76,133.86a7.5,7.5,0,0,1-7.5-7.5V96a7.5,7.5,0,0,1,7.5-7.5h30.41a7.5,7.5,0,0,1,7.5,7.5A37.94,37.94,0,0,1,129.76,133.86Zm7.5-30.4V117.6a23,23,0,0,0,14.15-14.14Z"/><path class="cls-1" d="M358.28,133.86A38,38,0,0,1,320.37,96a7.5,7.5,0,0,1,7.5-7.5h30.41a7.5,7.5,0,0,1,7.5,7.5v30.4A7.5,7.5,0,0,1,358.28,133.86Zm-21.65-30.4a23,23,0,0,0,14.15,14.14V103.46Z"/><path class="cls-1" d="M358.28,208.5H327.87a7.5,7.5,0,0,1-7.5-7.5,38,38,0,0,1,37.91-37.91,7.5,7.5,0,0,1,7.5,7.5V201a7.51,7.51,0,0,1-7.5,7.5Zm-21.65-15h14.15V179.35A23,23,0,0,0,336.63,193.5Z"/><path class="cls-1" d="M160.17,208.5H129.76a7.5,7.5,0,0,1-7.5-7.5V170.59a7.5,7.5,0,0,1,7.5-7.5A38,38,0,0,1,167.67,201,7.5,7.5,0,0,1,160.17,208.5Zm-22.91-15h14.15a23,23,0,0,0-14.15-14.15Z"/><path class="cls-1" d="M244,179.94a31.46,31.46,0,1,1,31.46-31.46A31.5,31.5,0,0,1,244,179.94ZM244,132a16.46,16.46,0,1,0,16.46,16.46A16.48,16.48,0,0,0,244,132Z"/><circle class="cls-2" cx="122.5" cy="281.5" r="47"/><path class="cls-1" d="M122.5,336A54.5,54.5,0,1,1,177,281.5,54.56,54.56,0,0,1,122.5,336Zm0-94A39.5,39.5,0,1,0,162,281.5,39.55,39.55,0,0,0,122.5,242Z"/><polyline class="cls-2" points="103 280.94 118.38 296.31 144 270.69"/><path class="cls-1" d="M118.38,303.81a7.51,7.51,0,0,1-5.31-2.19L97.7,286.24a7.5,7.5,0,0,1,10.6-10.61l10.08,10.08,20.32-20.33A7.5,7.5,0,0,1,149.3,276l-25.62,25.63A7.51,7.51,0,0,1,118.38,303.81Z"/><circle class="cls-2" cx="389.5" cy="281.5" r="47"/><path class="cls-1" d="M389.5,336A54.5,54.5,0,1,1,444,281.5,54.56,54.56,0,0,1,389.5,336Zm0-94A39.5,39.5,0,1,0,429,281.5,39.55,39.55,0,0,0,389.5,242Z"/><path class="cls-1" d="M402.5,302a7.44,7.44,0,0,1-5.3-2.2l-26-26a7.5,7.5,0,0,1,10.6-10.6l26,26a7.5,7.5,0,0,1-5.3,12.8Z"/><path class="cls-1" d="M376.5,302a7.5,7.5,0,0,1-5.3-12.8l26-26a7.5,7.5,0,0,1,10.6,10.6l-26,26A7.44,7.44,0,0,1,376.5,302Z"/><path class="cls-2" d="M256,336.3h0A70.71,70.71,0,0,1,326.71,407v45a0,0,0,0,1,0,0H185.29a0,0,0,0,1,0,0V407A70.71,70.71,0,0,1,256,336.3Z"/><path class="cls-1" d="M326.71,459.5H185.29a7.5,7.5,0,0,1-7.5-7.5V407a78.21,78.21,0,0,1,156.42,0v45A7.5,7.5,0,0,1,326.71,459.5Zm-133.92-15H319.21V407a63.21,63.21,0,0,0-126.42,0Z"/><circle class="cls-2" cx="256" cy="298.65" r="37.65"/><path class="cls-1" d="M256,343.8a45.15,45.15,0,1,1,45.15-45.15A45.2,45.2,0,0,1,256,343.8Zm0-75.3a30.15,30.15,0,1,0,30.15,30.15A30.18,30.18,0,0,0,256,268.5Z"/></g></svg>