<svg xmlns="http://www.w3.org/2000/svg" viewBox="0 0 512 512"><defs><style>.cls-1{fill:#fff;}.cls-2{fill:#2f60ce;}</style></defs><title>truescore</title><g id="Layer_2" data-name="Layer 2"><polygon class="cls-1" points="403 114.42 403 382.56 151.56 382.56 151.56 66.58 355.15 66.58 403 114.42"/><path class="cls-2" d="M403,390.06H151.56a7.5,7.5,0,0,1-7.5-7.5v-316a7.5,7.5,0,0,1,7.5-7.5H355.15a7.49,7.49,0,0,1,5.3,2.2l47.85,47.84a7.49,7.49,0,0,1,2.2,5.3V382.56A7.5,7.5,0,0,1,403,390.06Zm-243.94-15H395.5V117.53L352,74.08h-193Z"/><rect class="cls-2" x="199.4" y="253.78" width="32.26" height="15"/><rect class="cls-2" x="251.13" y="253.78" width="110.15" height="15"/><rect class="cls-2" x="199.4" y="289.39" width="32.26" height="15"/><rect class="cls-2" x="251.13" y="289.39" width="110.15" height="15"/><path class="cls-2" d="M220.41,151h50.77v11.68l-31.63,58.83H222l31.52-57.12H220.41Z"/><path class="cls-2" d="M336.7,210.49A19.37,19.37,0,0,1,331,217a26.62,26.62,0,0,1-8.61,4.08,39.74,39.74,0,0,1-10.83,1.41,38.58,38.58,0,0,1-10.83-1.46,27.32,27.32,0,0,1-8.61-4.13,19.61,19.61,0,0,1-5.69-6.44,17.24,17.24,0,0,1-2.07-8.41q0-6.56,2.87-10.53a21.26,21.26,0,0,1,8.52-6.6,20.6,20.6,0,0,1-6.55-6.14,16.6,16.6,0,0,1-2.42-9.37,17.07,17.07,0,0,1,1.76-7.61,18.32,18.32,0,0,1,5-6.19,25.12,25.12,0,0,1,7.81-4.13,34.83,34.83,0,0,1,20.29,0,25.06,25.06,0,0,1,7.86,4.13,18.32,18.32,0,0,1,5,6.19,17.07,17.07,0,0,1,1.76,7.61,16.6,16.6,0,0,1-2.42,9.37,20.6,20.6,0,0,1-6.55,6.14,25.36,25.36,0,0,1,8.42,6.6c2,2.52,3,5.89,3,10.12A18.46,18.46,0,0,1,336.7,210.49Zm-16.37-16.13a18.11,18.11,0,0,0-17.52,0,7.26,7.26,0,0,0-3.43,6.46,7.71,7.71,0,0,0,3.22,6.31q3.22,2.51,9,2.5t9-2.5a7.71,7.71,0,0,0,3.22-6.31A7.26,7.26,0,0,0,320.33,194.36Zm-1.31-29c-1.74-1.67-4.23-2.51-7.45-2.51s-5.71.82-7.45,2.46a7.62,7.62,0,0,0-2.62,5.75,8,8,0,0,0,2.72,6.26,10.53,10.53,0,0,0,7.35,2.45,10.7,10.7,0,0,0,7.35-2.4,7.88,7.88,0,0,0,2.72-6.21A7.77,7.77,0,0,0,319,165.4Z"/><rect class="cls-2" x="199.4" y="92.18" width="116.26" height="15"/><rect class="cls-1" x="109" y="336.94" width="141.85" height="109.03"/><path class="cls-2" d="M250.85,453.47H109a7.5,7.5,0,0,1-7.5-7.5v-109a7.5,7.5,0,0,1,7.5-7.5H250.85a7.5,7.5,0,0,1,7.5,7.5V446A7.49,7.49,0,0,1,250.85,453.47Zm-134.35-15H243.35v-94H116.5Z"/><path class="cls-2" d="M179.09,397.23a21.13,21.13,0,1,1,21.13-21.12A21.15,21.15,0,0,1,179.09,397.23Zm0-27.25a6.13,6.13,0,1,0,6.13,6.13A6.14,6.14,0,0,0,179.09,370Z"/><path class="cls-2" d="M211.63,427.28h-15V415.6a17.54,17.54,0,0,0-35.07,0v11.68h-15V415.6a32.54,32.54,0,0,1,65.07,0Z"/><path class="cls-2" d="M401.32,121.92h-48.4a7.5,7.5,0,0,1-7.5-7.5V66a7.51,7.51,0,0,1,12.81-5.31l48.39,48.4a7.5,7.5,0,0,1-5.3,12.8Zm-40.9-15h22.79L360.42,84.13Z"/></g></svg>